<?xml version="1.0" standalone="no"?>
<!DOCTYPE svg PUBLIC "-//W3C//DTD SVG 20010904//EN"
 "http://www.w3.org/TR/2001/REC-SVG-20010904/DTD/svg10.dtd">
<svg version="1.0" xmlns="http://www.w3.org/2000/svg"
 width="300.000000pt" height="70.000000pt" viewBox="0 0 300.000000 70.000000"
 preserveAspectRatio="xMidYMid meet">
<metadata>
Created by potrace 1.10, written by Peter Selinger 2001-2011
</metadata>
<g transform="translate(0.000000,70.000000) scale(0.100000,-0.100000)"
fill="#000000" stroke="none">
<path d="M2656 623 c-3 -3 -6 -16 -6 -27 -1 -20 -2 -20 -14 -3 -7 9 -18 17
-25 17 -17 0 -13 -32 8 -58 11 -12 26 -20 34 -16 8 3 18 1 21 -4 5 -8 -23 -18
-62 -22 -4 -1 -17 -10 -29 -22 -12 -11 -26 -17 -32 -13 -6 3 -11 2 -11 -4 0
-5 5 -11 12 -13 8 -3 8 -9 -1 -24 -12 -19 -12 -19 -7 1 6 20 6 20 -9 0 -9 -12
-12 -21 -5 -23 6 -2 4 -10 -5 -19 -18 -17 -20 -33 -4 -33 7 0 10 -12 7 -30 -3
-17 -2 -30 1 -30 3 0 12 -13 19 -29 24 -54 71 -91 117 -91 14 0 25 -4 25 -9 0
-13 98 16 130 39 36 25 51 52 60 103 21 112 -64 217 -177 217 -13 0 -23 5 -23
10 0 6 -8 10 -19 10 -10 0 -23 6 -29 13 -8 9 -4 12 16 12 15 1 30 -4 34 -9 7
-10 68 11 68 24 0 16 -12 40 -20 40 -5 0 -12 -9 -15 -20 -7 -23 -35 -27 -35
-6 0 17 -14 28 -24 19z m124 -132 c98 -50 96 -196 -3 -242 -23 -10 -53 -19
-67 -19 -42 0 -108 37 -130 72 -11 18 -20 29 -20 23 1 -24 30 -59 70 -86 46
-31 105 -38 154 -19 43 16 29 0 -17 -20 -136 -60 -265 85 -198 224 22 45 53
72 100 87 32 9 65 4 111 -20z"/>
<path d="M2767 592 c-23 -23 -25 -31 -13 -35 8 -3 17 -1 19 6 3 8 9 6 19 -7
13 -17 16 -17 31 -2 11 11 18 13 23 5 3 -6 0 -16 -7 -21 -10 -7 -4 -8 19 -4
21 4 32 1 32 -6 0 -9 3 -9 12 0 10 10 10 15 -2 22 -8 6 -21 8 -27 5 -8 -2 -13
4 -13 15 0 24 -8 25 -32 4 -19 -18 -23 -14 -30 29 -3 16 -7 14 -31 -11z"/>
<path d="M1649 578 c488 -4 836 -4 855 1 19 6 -300 9 -824 8 l-855 0 824 -9z"/>
<path d="M2553 583 c-25 -9 -13 -30 17 -30 17 0 30 3 30 6 0 11 -35 28 -47 24z"/>
<path d="M2499 533 c-1 -5 -2 -13 -3 -20 0 -7 -10 -18 -20 -26 -12 -9 -16 -19
-11 -27 6 -10 10 -9 17 4 5 9 13 14 18 11 5 -3 11 -1 15 5 3 5 1 10 -6 10 -8
0 -8 4 1 15 7 8 18 15 26 15 7 0 16 5 19 10 4 6 -7 10 -24 10 -17 0 -32 -3
-32 -7z"/>
<path d="M2890 501 c0 -10 50 -25 57 -17 3 2 2 9 -2 15 -8 13 -55 15 -55 2z"/>
<path d="M50 355 c0 -131 1 -135 21 -135 21 0 21 4 17 105 -2 58 -1 105 2 105
3 0 18 -47 35 -105 l30 -106 34 3 34 3 31 103 c16 56 33 102 36 102 3 0 4 -47
2 -105 l-4 -105 46 0 46 0 0 135 0 135 -58 0 -58 0 -19 -71 c-11 -39 -23 -73
-26 -75 -4 -2 -17 30 -30 71 l-22 75 -58 0 -59 0 0 -135z m104 41 c9 -25 24
-50 32 -56 14 -12 20 -60 8 -60 -12 0 -33 34 -34 53 0 10 -9 37 -20 59 -23 48
-23 48 -11 48 4 0 16 -20 25 -44z m185 -18 l-1 -63 -8 51 c-4 29 -11 57 -14
63 -4 6 0 11 8 11 13 0 16 -12 15 -62z"/>
<path d="M463 355 c-59 -131 -60 -135 -38 -135 18 0 27 9 37 35 l12 36 60 -3
c59 -3 61 -4 70 -35 9 -32 11 -33 61 -33 l53 0 -27 68 c-15 37 -39 97 -52 135
l-24 67 -46 0 -46 0 -60 -135z m150 23 c42 -104 42 -106 13 -79 -16 15 -26 35
-26 53 0 16 -7 42 -15 58 -9 17 -12 30 -7 30 5 0 20 -28 35 -62z m-63 27 c25
-66 24 -71 -14 -71 -20 0 -36 2 -36 5 0 8 34 91 38 91 1 0 7 -11 12 -25z"/>
<path d="M767 472 c-20 -22 -24 -131 -5 -150 7 -7 39 -12 76 -12 60 0 63 -1
60 -22 -3 -21 -8 -23 -70 -22 -65 1 -68 -1 -68 -23 0 -23 2 -23 99 -23 68 0
102 4 109 13 12 15 19 138 8 155 -4 7 -34 12 -72 12 -62 0 -64 1 -64 26 0 26
1 26 68 23 63 -4 67 -3 70 19 3 22 1 22 -96 22 -83 0 -102 -3 -115 -18z m60
-84 c14 -13 35 -21 55 -20 40 1 68 -14 68 -37 0 -29 -12 -32 -37 -9 -15 14
-42 24 -71 28 -42 4 -47 8 -50 33 -4 33 4 34 35 5z"/>
<path d="M1020 355 l0 -135 48 0 47 0 -3 60 -4 60 43 0 42 0 -6 -60 -5 -60 49
0 49 0 0 135 0 135 -49 0 -50 0 6 -55 6 -55 -43 0 -42 0 4 55 3 55 -47 0 -48
0 0 -135z m70 9 c0 -7 -7 -27 -15 -45 -14 -34 -14 -33 -14 41 1 72 1 74 14 45
8 -16 14 -35 15 -41z m150 -11 l0 -67 -20 38 c-17 35 -18 41 -4 67 8 16 17 29
19 29 3 0 5 -30 5 -67z"/>
<path d="M1320 355 l0 -135 45 0 45 0 0 135 0 135 -45 0 -45 0 0 -135z m47
-32 c-2 -21 -4 -4 -4 37 0 41 2 58 4 38 2 -21 2 -55 0 -75z"/>
<path d="M1459 485 c0 0 -2 -60 -4 -132 l-5 -133 27 0 26 0 -6 110 c-3 61 -2
110 2 110 4 0 13 -16 20 -36 7 -20 29 -70 48 -110 l35 -74 59 0 59 0 0 135 c0
130 -1 135 -21 135 -19 0 -20 -5 -17 -105 2 -58 1 -105 -3 -105 -3 0 -27 45
-55 101 l-49 101 -57 2 c-32 0 -58 1 -59 1z m131 -99 c0 -8 7 -19 15 -26 8 -7
15 -18 15 -26 0 -7 11 -25 25 -40 31 -33 32 -44 4 -44 -24 0 -48 26 -49 53 0
9 -4 17 -8 17 -4 0 -14 16 -21 35 -7 19 -19 42 -28 50 -9 9 -12 23 -8 33 6 15
10 13 31 -11 13 -15 24 -34 24 -41z"/>
<path d="M1760 353 l0 -133 50 0 50 0 0 133 0 132 -50 0 -50 0 0 -132z m65 -8
c0 -73 -3 -90 -15 -90 -12 0 -16 18 -18 93 -3 85 -1 93 15 90 16 -3 18 -15 18
-93z"/>
<path d="M1892 468 c3 -20 8 -23 41 -21 l37 2 0 -114 0 -115 45 0 45 0 0 115
0 116 35 -7 c33 -6 35 -5 35 20 l0 26 -121 0 c-119 0 -120 0 -117 -22z m128
-104 c0 -56 -4 -83 -10 -79 -10 6 -13 141 -3 158 10 18 13 2 13 -79z"/>
<path d="M2165 355 l0 -135 108 0 c106 0 108 0 105 22 -3 20 -8 22 -60 19
l-58 -2 0 40 0 41 55 0 c48 0 55 2 55 20 0 18 -7 20 -55 20 l-55 0 0 36 0 35
53 -2 c53 -2 57 -1 57 26 0 12 -18 15 -102 15 l-103 0 0 -135z m67 13 c0 -65
-6 -93 -18 -93 -10 0 -18 130 -9 153 11 30 28 -6 27 -60z"/>
<path d="M2920 455 c0 -8 6 -15 14 -15 8 0 16 -6 19 -12 3 -10 7 -10 17 -1 10
9 6 15 -19 27 -27 15 -31 15 -31 1z"/>
<path d="M2453 433 c-15 -6 -17 -33 -3 -33 6 0 10 5 10 10 0 6 7 10 15 10 8 0
15 5 15 10 0 10 -16 12 -37 3z"/>
<path d="M2940 402 c0 -6 6 -13 13 -15 9 -4 8 -8 -3 -17 -12 -9 -11 -10 8 -8
30 4 32 17 5 36 -13 8 -23 10 -23 4z"/>
<path d="M2925 340 c4 -6 11 -8 16 -5 15 10 10 -12 -6 -25 -12 -10 -13 -16 -4
-27 9 -11 8 -17 -7 -28 -10 -8 -22 -15 -26 -15 -5 0 -8 -8 -8 -18 0 -10 -7
-27 -15 -38 -15 -19 -15 -19 -9 1 5 19 5 19 -10 1 -8 -10 -22 -16 -30 -13 -11
4 -13 1 -9 -10 4 -10 2 -14 -4 -10 -6 4 -13 0 -17 -8 -3 -9 0 -15 8 -15 8 0
16 -7 20 -15 9 -26 28 -17 24 13 -3 27 2 29 36 16 16 -6 17 -3 11 24 -6 31 -6
32 26 25 l32 -6 -16 24 c-23 32 -21 40 8 33 30 -8 32 5 5 34 -19 20 -18 27 4
23 5 -1 16 1 24 4 13 5 12 8 -3 25 -18 20 -61 29 -50 10z"/>
<path d="M2444 309 c-15 -17 -16 -22 -4 -29 8 -5 18 -6 23 -3 5 3 6 -8 2 -26
-6 -31 -6 -31 26 -29 29 3 34 0 35 -19 1 -12 -2 -20 -7 -17 -4 2 -5 12 -2 22
6 15 5 15 -10 3 -16 -12 -24 -51 -11 -51 15 0 44 22 39 31 -4 5 1 9 11 9 13 0
11 6 -11 25 -21 20 -30 23 -41 14 -19 -16 -18 5 1 25 13 13 13 15 -7 18 -17 2
-22 9 -21 26 3 27 1 27 -23 1z"/>
<path d="M2542 156 c-13 -28 2 -46 21 -27 18 18 27 13 27 -14 0 -27 17 -34 26
-10 10 25 34 17 34 -10 0 -30 16 -33 25 -5 3 11 11 20 17 20 5 0 12 -9 15 -20
7 -28 22 -25 34 8 l11 27 11 -22 c11 -25 22 -29 32 -13 11 18 -28 61 -50 55
-42 -12 -96 -14 -90 -5 3 6 3 10 -2 11 -70 5 -86 8 -92 18 -5 8 -11 3 -19 -13z"/>
<path d="M1195 130 c-190 -3 7 -6 510 -7 560 -1 812 1 795 8 -25 10 -655 10
-1305 -1z"/>
</g>
</svg>
